<svg xmlns="http://www.w3.org/2000/svg" xmlns:xlink="http://www.w3.org/1999/xlink" contentStyleType="text/css" height="642px" preserveAspectRatio="none" style="width:640px;height:642px;background:#FFFFFF;" version="1.1" viewBox="0 0 640 642" width="640px" zoomAndPan="magnify"><defs/><g><ellipse cx="344.4172" cy="20" fill="#222222" rx="10" ry="10" style="stroke:#222222;stroke-width:1;"/><rect fill="#F1F1F1" height="33.9688" rx="12.5" ry="12.5" style="stroke:#181818;stroke-width:0.5;" width="206.4277" x="241.2034" y="50"/><text fill="#000000" font-family="sans-serif" font-size="12" lengthAdjust="spacing" textLength="186.4277" x="251.2034" y="71.1387">Open BookMyShow Application</text><rect fill="#F1F1F1" height="33.9688" rx="12.5" ry="12.5" style="stroke:#181818;stroke-width:0.5;" width="172.0566" x="258.3889" y="103.9688"/><text fill="#000000" font-family="sans-serif" font-size="12" lengthAdjust="spacing" textLength="152.0566" x="268.3889" y="125.1074">Search for Movies/Events</text><polygon fill="#F1F1F1" points="302.6516,157.9375,386.1829,157.9375,398.1829,169.9375,386.1829,181.9375,302.6516,181.9375,290.6516,169.9375,302.6516,157.9375" style="stroke:#181818;stroke-width:0.5;"/><text fill="#000000" font-family="sans-serif" font-size="11" lengthAdjust="spacing" textLength="83.5313" x="302.6516" y="173.7456">Results Found?</text><text fill="#000000" font-family="sans-serif" font-size="11" lengthAdjust="spacing" textLength="19.2178" x="271.4338" y="167.3433">Yes</text><text fill="#000000" font-family="sans-serif" font-size="11" lengthAdjust="spacing" textLength="14.9585" x="398.1829" y="167.3433">No</text><rect fill="#F1F1F1" height="33.9688" rx="12.5" ry="12.5" style="stroke:#181818;stroke-width:0.5;" width="134.7676" x="106.0278" y="191.9375"/><text fill="#000000" font-family="sans-serif" font-size="12" lengthAdjust="spacing" textLength="114.7676" x="116.0278" y="213.0762">Select Movie/Event</text><rect fill="#F1F1F1" height="33.9688" rx="12.5" ry="12.5" style="stroke:#181818;stroke-width:0.5;" width="156.7402" x="95.0415" y="245.9063"/><text fill="#000000" font-family="sans-serif" font-size="12" lengthAdjust="spacing" textLength="136.7402" x="105.0415" y="267.0449">Choose Date and Time</text><rect fill="#F1F1F1" height="33.9688" rx="12.5" ry="12.5" style="stroke:#181818;stroke-width:0.5;" width="212.3691" x="67.2271" y="299.875"/><text fill="#000000" font-family="sans-serif" font-size="12" lengthAdjust="spacing" textLength="192.3691" x="77.2271" y="321.0137">Select Seats from Seating Chart</text><rect fill="#F1F1F1" height="33.9688" rx="12.5" ry="12.5" style="stroke:#181818;stroke-width:0.5;" width="141.2422" x="102.7905" y="353.8438"/><text fill="#000000" font-family="sans-serif" font-size="12" lengthAdjust="spacing" textLength="121.2422" x="112.7905" y="374.9824">Proceed to Payment</text><polygon fill="#F1F1F1" points="115.3286,407.8125,231.4946,407.8125,243.4946,419.8125,231.4946,431.8125,115.3286,431.8125,103.3286,419.8125,115.3286,407.8125" style="stroke:#181818;stroke-width:0.5;"/><text fill="#000000" font-family="sans-serif" font-size="11" lengthAdjust="spacing" textLength="116.166" x="115.3286" y="423.6206">Payment Successful?</text><text fill="#000000" font-family="sans-serif" font-size="11" lengthAdjust="spacing" textLength="19.2178" x="84.1108" y="417.2183">Yes</text><text fill="#000000" font-family="sans-serif" font-size="11" lengthAdjust="spacing" textLength="14.9585" x="243.4946" y="417.2183">No</text><rect fill="#F1F1F1" height="33.9688" rx="12.5" ry="12.5" style="stroke:#181818;stroke-width:0.5;" width="134.7441" x="11" y="441.8125"/><text fill="#000000" font-family="sans-serif" font-size="12" lengthAdjust="spacing" textLength="114.7441" x="21" y="462.9512">Booking Confirmed</text><rect fill="#F1F1F1" height="33.9688" rx="12.5" ry="12.5" style="stroke:#181818;stroke-width:0.5;" width="128.0703" x="14.3369" y="495.7813"/><text fill="#000000" font-family="sans-serif" font-size="12" lengthAdjust="spacing" textLength="108.0703" x="24.3369" y="516.9199">Generate E-Ticket</text><rect fill="#F1F1F1" height="33.9688" rx="12.5" ry="12.5" style="stroke:#181818;stroke-width:0.5;" width="205.4141" x="165.7441" y="441.8125"/><text fill="#000000" font-family="sans-serif" font-size="12" lengthAdjust="spacing" textLength="185.4141" x="175.7441" y="462.9512">Show Payment Failed Message</text><polygon fill="#F1F1F1" points="173.4116,535.75,185.4116,547.75,173.4116,559.75,161.4116,547.75,173.4116,535.75" style="stroke:#181818;stroke-width:0.5;"/><rect fill="#F1F1F1" height="33.9688" rx="12.5" ry="12.5" style="stroke:#181818;stroke-width:0.5;" width="228.5293" x="401.1582" y="191.9375"/><text fill="#000000" font-family="sans-serif" font-size="12" lengthAdjust="spacing" textLength="208.5293" x="411.1582" y="213.0762">Show "No Results Found" Message</text><polygon fill="#F1F1F1" points="344.4172,565.75,356.4172,577.75,344.4172,589.75,332.4172,577.75,344.4172,565.75" style="stroke:#181818;stroke-width:0.5;"/><ellipse cx="344.4172" cy="620.75" fill="none" rx="11" ry="11" style="stroke:#222222;stroke-width:1;"/><ellipse cx="344.4172" cy="620.75" fill="#222222" rx="6" ry="6" style="stroke:#222222;stroke-width:1;"/><line style="stroke:#181818;stroke-width:1;" x1="344.4172" x2="344.4172" y1="30" y2="50"/><polygon fill="#181818" points="340.4172,40,344.4172,50,348.4172,40,344.4172,44" style="stroke:#181818;stroke-width:1;"/><line style="stroke:#181818;stroke-width:1;" x1="344.4172" x2="344.4172" y1="83.9688" y2="103.9688"/><polygon fill="#181818" points="340.4172,93.9688,344.4172,103.9688,348.4172,93.9688,344.4172,97.9688" style="stroke:#181818;stroke-width:1;"/><line style="stroke:#181818;stroke-width:1;" x1="173.4116" x2="173.4116" y1="225.9063" y2="245.9063"/><polygon fill="#181818" points="169.4116,235.9063,173.4116,245.9063,177.4116,235.9063,173.4116,239.9063" style="stroke:#181818;stroke-width:1;"/><line style="stroke:#181818;stroke-width:1;" x1="173.4116" x2="173.4116" y1="279.875" y2="299.875"/><polygon fill="#181818" points="169.4116,289.875,173.4116,299.875,177.4116,289.875,173.4116,293.875" style="stroke:#181818;stroke-width:1;"/><line style="stroke:#181818;stroke-width:1;" x1="173.4116" x2="173.4116" y1="333.8438" y2="353.8438"/><polygon fill="#181818" points="169.4116,343.8438,173.4116,353.8438,177.4116,343.8438,173.4116,347.8438" style="stroke:#181818;stroke-width:1;"/><line style="stroke:#181818;stroke-width:1;" x1="78.3721" x2="78.3721" y1="475.7813" y2="495.7813"/><polygon fill="#181818" points="74.3721,485.7813,78.3721,495.7813,82.3721,485.7813,78.3721,489.7813" style="stroke:#181818;stroke-width:1;"/><line style="stroke:#181818;stroke-width:1;" x1="103.3286" x2="78.3721" y1="419.8125" y2="419.8125"/><line style="stroke:#181818;stroke-width:1;" x1="78.3721" x2="78.3721" y1="419.8125" y2="441.8125"/><polygon fill="#181818" points="74.3721,431.8125,78.3721,441.8125,82.3721,431.8125,78.3721,435.8125" style="stroke:#181818;stroke-width:1;"/><line style="stroke:#181818;stroke-width:1;" x1="243.4946" x2="268.4512" y1="419.8125" y2="419.8125"/><line style="stroke:#181818;stroke-width:1;" x1="268.4512" x2="268.4512" y1="419.8125" y2="441.8125"/><polygon fill="#181818" points="264.4512,431.8125,268.4512,441.8125,272.4512,431.8125,268.4512,435.8125" style="stroke:#181818;stroke-width:1;"/><line style="stroke:#181818;stroke-width:1;" x1="78.3721" x2="78.3721" y1="529.75" y2="547.75"/><line style="stroke:#181818;stroke-width:1;" x1="78.3721" x2="161.4116" y1="547.75" y2="547.75"/><polygon fill="#181818" points="151.4116,543.75,161.4116,547.75,151.4116,551.75,155.4116,547.75" style="stroke:#181818;stroke-width:1;"/><line style="stroke:#181818;stroke-width:1;" x1="268.4512" x2="268.4512" y1="475.7813" y2="547.75"/><line style="stroke:#181818;stroke-width:1;" x1="268.4512" x2="185.4116" y1="547.75" y2="547.75"/><polygon fill="#181818" points="195.4116,543.75,185.4116,547.75,195.4116,551.75,191.4116,547.75" style="stroke:#181818;stroke-width:1;"/><line style="stroke:#181818;stroke-width:1;" x1="173.4116" x2="173.4116" y1="387.8125" y2="407.8125"/><polygon fill="#181818" points="169.4116,397.8125,173.4116,407.8125,177.4116,397.8125,173.4116,401.8125" style="stroke:#181818;stroke-width:1;"/><line style="stroke:#181818;stroke-width:1;" x1="290.6516" x2="173.4116" y1="169.9375" y2="169.9375"/><line style="stroke:#181818;stroke-width:1;" x1="173.4116" x2="173.4116" y1="169.9375" y2="191.9375"/><polygon fill="#181818" points="169.4116,181.9375,173.4116,191.9375,177.4116,181.9375,173.4116,185.9375" style="stroke:#181818;stroke-width:1;"/><line style="stroke:#181818;stroke-width:1;" x1="398.1829" x2="515.4229" y1="169.9375" y2="169.9375"/><line style="stroke:#181818;stroke-width:1;" x1="515.4229" x2="515.4229" y1="169.9375" y2="191.9375"/><polygon fill="#181818" points="511.4229,181.9375,515.4229,191.9375,519.4229,181.9375,515.4229,185.9375" style="stroke:#181818;stroke-width:1;"/><line style="stroke:#181818;stroke-width:1;" x1="173.4116" x2="173.4116" y1="559.75" y2="577.75"/><line style="stroke:#181818;stroke-width:1;" x1="173.4116" x2="332.4172" y1="577.75" y2="577.75"/><polygon fill="#181818" points="322.4172,573.75,332.4172,577.75,322.4172,581.75,326.4172,577.75" style="stroke:#181818;stroke-width:1;"/><line style="stroke:#181818;stroke-width:1;" x1="515.4229" x2="515.4229" y1="225.9063" y2="577.75"/><line style="stroke:#181818;stroke-width:1;" x1="515.4229" x2="356.4172" y1="577.75" y2="577.75"/><polygon fill="#181818" points="366.4172,573.75,356.4172,577.75,366.4172,581.75,362.4172,577.75" style="stroke:#181818;stroke-width:1;"/><line style="stroke:#181818;stroke-width:1;" x1="344.4172" x2="344.4172" y1="137.9375" y2="157.9375"/><polygon fill="#181818" points="340.4172,147.9375,344.4172,157.9375,348.4172,147.9375,344.4172,151.9375" style="stroke:#181818;stroke-width:1;"/><line style="stroke:#181818;stroke-width:1;" x1="344.4172" x2="344.4172" y1="589.75" y2="609.75"/><polygon fill="#181818" points="340.4172,599.75,344.4172,609.75,348.4172,599.75,344.4172,603.75" style="stroke:#181818;stroke-width:1;"/><!--SRC=[NP2nRWCX38PtdiBAT1cgxc6esZJfT6dKoz8HSIQWSFY4kLHv-t9mLTDkOFdx_TcSL4nYypvYW1UYItlhB7t1ypXwfrLo5AJOTAYYjc0eGajNX_ouks98B8Kpq7mWJpunx6aA_TCQairPpIVoMW1argDEbQkOdCjRIyG8hoeXgD33oGqex_hpo1nf8WtbwS8PjZQhbfvZ98tOGo8ugjkmPCukonUwIMjaDfF_BvJnUSyIIC6uE60lQ_qD0yPPQFTmSlg29HLzrcmEjB3bEZzJzihvhD7cIUfSz37qpeXxfXAh0y6VEwr-gSfmel4R]--></g></svg>