<svg xmlns="http://www.w3.org/2000/svg" xmlns:xlink="http://www.w3.org/1999/xlink" contentStyleType="text/css" height="648px" preserveAspectRatio="none" style="width:1249px;height:648px;background:#FFFFFF;" version="1.1" viewBox="0 0 1249 648" width="1249px" zoomAndPan="magnify"><defs/><g><line style="stroke:#181818;stroke-width:0.5;stroke-dasharray:5.0,5.0;" x1="40" x2="40" y1="81.2969" y2="567.4219"/><line style="stroke:#181818;stroke-width:0.5;stroke-dasharray:5.0,5.0;" x1="270.3994" x2="270.3994" y1="81.2969" y2="567.4219"/><line style="stroke:#181818;stroke-width:0.5;stroke-dasharray:5.0,5.0;" x1="443.6865" x2="443.6865" y1="81.2969" y2="567.4219"/><line style="stroke:#181818;stroke-width:0.5;stroke-dasharray:5.0,5.0;" x1="623.9707" x2="623.9707" y1="81.2969" y2="567.4219"/><line style="stroke:#181818;stroke-width:0.5;stroke-dasharray:5.0,5.0;" x1="799.4043" x2="799.4043" y1="81.2969" y2="567.4219"/><line style="stroke:#181818;stroke-width:0.5;stroke-dasharray:5.0,5.0;" x1="950.5156" x2="950.5156" y1="81.2969" y2="567.4219"/><line style="stroke:#181818;stroke-width:0.5;stroke-dasharray:5.0,5.0;" x1="1139.0361" x2="1139.0361" y1="81.2969" y2="567.4219"/><text fill="#000000" font-family="sans-serif" font-size="14" lengthAdjust="spacing" textLength="64.1553" x="5" y="77.9951">Attendee</text><ellipse cx="40.0776" cy="13.5" fill="#E2E2F0" rx="8" ry="8" style="stroke:#181818;stroke-width:0.5;"/><path d="M40.0776,21.5 L40.0776,48.5 M27.0776,29.5 L53.0776,29.5 M40.0776,48.5 L27.0776,63.5 M40.0776,48.5 L53.0776,63.5 " fill="none" style="stroke:#181818;stroke-width:0.5;"/><text fill="#000000" font-family="sans-serif" font-size="14" lengthAdjust="spacing" textLength="64.1553" x="5" y="579.417">Attendee</text><ellipse cx="40.0776" cy="591.2188" fill="#E2E2F0" rx="8" ry="8" style="stroke:#181818;stroke-width:0.5;"/><path d="M40.0776,599.2188 L40.0776,626.2188 M27.0776,607.2188 L53.0776,607.2188 M40.0776,626.2188 L27.0776,641.2188 M40.0776,626.2188 L53.0776,641.2188 " fill="none" style="stroke:#181818;stroke-width:0.5;"/><rect fill="#E2E2F0" height="30.2969" rx="2.5" ry="2.5" style="stroke:#181818;stroke-width:0.5;" width="77.1094" x="232.3994" y="50"/><text fill="#000000" font-family="sans-serif" font-size="14" lengthAdjust="spacing" textLength="63.1094" x="239.3994" y="69.9951">Frontend</text><rect fill="#E2E2F0" height="30.2969" rx="2.5" ry="2.5" style="stroke:#181818;stroke-width:0.5;" width="77.1094" x="232.3994" y="566.4219"/><text fill="#000000" font-family="sans-serif" font-size="14" lengthAdjust="spacing" textLength="63.1094" x="239.3994" y="586.417">Frontend</text><rect fill="#E2E2F0" height="30.2969" rx="2.5" ry="2.5" style="stroke:#181818;stroke-width:0.5;" width="102.4434" x="392.6865" y="50"/><text fill="#000000" font-family="sans-serif" font-size="14" lengthAdjust="spacing" textLength="88.4434" x="399.6865" y="69.9951">API Gateway</text><rect fill="#E2E2F0" height="30.2969" rx="2.5" ry="2.5" style="stroke:#181818;stroke-width:0.5;" width="102.4434" x="392.6865" y="566.4219"/><text fill="#000000" font-family="sans-serif" font-size="14" lengthAdjust="spacing" textLength="88.4434" x="399.6865" y="586.417">API Gateway</text><rect fill="#E2E2F0" height="30.2969" rx="2.5" ry="2.5" style="stroke:#181818;stroke-width:0.5;" width="198.4336" x="524.9707" y="50"/><text fill="#000000" font-family="sans-serif" font-size="14" lengthAdjust="spacing" textLength="184.4336" x="531.9707" y="69.9951">Seat Management Service</text><rect fill="#E2E2F0" height="30.2969" rx="2.5" ry="2.5" style="stroke:#181818;stroke-width:0.5;" width="198.4336" x="524.9707" y="566.4219"/><text fill="#000000" font-family="sans-serif" font-size="14" lengthAdjust="spacing" textLength="184.4336" x="531.9707" y="586.417">Seat Management Service</text><rect fill="#E2E2F0" height="30.2969" rx="2.5" ry="2.5" style="stroke:#181818;stroke-width:0.5;" width="132.1113" x="733.4043" y="50"/><text fill="#000000" font-family="sans-serif" font-size="14" lengthAdjust="spacing" textLength="118.1113" x="740.4043" y="69.9951">Payment Service</text><rect fill="#E2E2F0" height="30.2969" rx="2.5" ry="2.5" style="stroke:#181818;stroke-width:0.5;" width="132.1113" x="733.4043" y="566.4219"/><text fill="#000000" font-family="sans-serif" font-size="14" lengthAdjust="spacing" textLength="118.1113" x="740.4043" y="586.417">Payment Service</text><rect fill="#E2E2F0" height="30.2969" rx="2.5" ry="2.5" style="stroke:#181818;stroke-width:0.5;" width="150.5205" x="875.5156" y="50"/><text fill="#000000" font-family="sans-serif" font-size="14" lengthAdjust="spacing" textLength="136.5205" x="882.5156" y="69.9951">Notification Service</text><rect fill="#E2E2F0" height="30.2969" rx="2.5" ry="2.5" style="stroke:#181818;stroke-width:0.5;" width="150.5205" x="875.5156" y="566.4219"/><text fill="#000000" font-family="sans-serif" font-size="14" lengthAdjust="spacing" textLength="136.5205" x="882.5156" y="586.417">Notification Service</text><rect fill="#E2E2F0" height="30.2969" rx="2.5" ry="2.5" style="stroke:#181818;stroke-width:0.5;" width="206.9717" x="1036.0361" y="50"/><text fill="#000000" font-family="sans-serif" font-size="14" lengthAdjust="spacing" textLength="192.9717" x="1043.0361" y="69.9951">Event Management Service</text><rect fill="#E2E2F0" height="30.2969" rx="2.5" ry="2.5" style="stroke:#181818;stroke-width:0.5;" width="206.9717" x="1036.0361" y="566.4219"/><text fill="#000000" font-family="sans-serif" font-size="14" lengthAdjust="spacing" textLength="192.9717" x="1043.0361" y="586.417">Event Management Service</text><polygon fill="#181818" points="258.9541,108.4297,268.9541,112.4297,258.9541,116.4297,262.9541,112.4297" style="stroke:#181818;stroke-width:1;"/><line style="stroke:#181818;stroke-width:1;" x1="40.0776" x2="264.9541" y1="112.4297" y2="112.4297"/><text fill="#000000" font-family="sans-serif" font-size="13" lengthAdjust="spacing" textLength="116.3335" x="47.0776" y="107.3638">Search for Movies</text><polygon fill="#181818" points="431.9082,137.5625,441.9082,141.5625,431.9082,145.5625,435.9082,141.5625" style="stroke:#181818;stroke-width:1;"/><line style="stroke:#181818;stroke-width:1;" x1="270.9541" x2="437.9082" y1="141.5625" y2="141.5625"/><text fill="#000000" font-family="sans-serif" font-size="13" lengthAdjust="spacing" textLength="113.7373" x="277.9541" y="136.4966">Fetch Movie Data</text><polygon fill="#181818" points="1127.522,166.6953,1137.522,170.6953,1127.522,174.6953,1131.522,170.6953" style="stroke:#181818;stroke-width:1;"/><line style="stroke:#181818;stroke-width:1;" x1="443.9082" x2="1133.522" y1="170.6953" y2="170.6953"/><text fill="#000000" font-family="sans-serif" font-size="13" lengthAdjust="spacing" textLength="114.9751" x="450.9082" y="165.6294">Get Movie Details</text><polygon fill="#181818" points="454.9082,195.8281,444.9082,199.8281,454.9082,203.8281,450.9082,199.8281" style="stroke:#181818;stroke-width:1;"/><line style="stroke:#181818;stroke-width:1;stroke-dasharray:2.0,2.0;" x1="448.9082" x2="1138.522" y1="199.8281" y2="199.8281"/><text fill="#000000" font-family="sans-serif" font-size="13" lengthAdjust="spacing" textLength="121.729" x="460.9082" y="194.7622">Return Movie Data</text><polygon fill="#181818" points="281.9541,224.9609,271.9541,228.9609,281.9541,232.9609,277.9541,228.9609" style="stroke:#181818;stroke-width:1;"/><line style="stroke:#181818;stroke-width:1;stroke-dasharray:2.0,2.0;" x1="275.9541" x2="442.9082" y1="228.9609" y2="228.9609"/><text fill="#000000" font-family="sans-serif" font-size="13" lengthAdjust="spacing" textLength="99.5757" x="287.9541" y="223.895">Display Results</text><polygon fill="#181818" points="258.9541,254.0938,268.9541,258.0938,258.9541,262.0938,262.9541,258.0938" style="stroke:#181818;stroke-width:1;"/><line style="stroke:#181818;stroke-width:1;" x1="40.0776" x2="264.9541" y1="258.0938" y2="258.0938"/><text fill="#000000" font-family="sans-serif" font-size="13" lengthAdjust="spacing" textLength="206.8765" x="47.0776" y="253.0278">Select Movie, Date, Time, Seats</text><polygon fill="#181818" points="431.9082,283.2266,441.9082,287.2266,431.9082,291.2266,435.9082,287.2266" style="stroke:#181818;stroke-width:1;"/><line style="stroke:#181818;stroke-width:1;" x1="270.9541" x2="437.9082" y1="287.2266" y2="287.2266"/><text fill="#000000" font-family="sans-serif" font-size="13" lengthAdjust="spacing" textLength="93.0566" x="277.9541" y="282.1606">Reserve Seats</text><polygon fill="#181818" points="612.1875,312.3594,622.1875,316.3594,612.1875,320.3594,616.1875,316.3594" style="stroke:#181818;stroke-width:1;"/><line style="stroke:#181818;stroke-width:1;" x1="443.9082" x2="618.1875" y1="316.3594" y2="316.3594"/><text fill="#000000" font-family="sans-serif" font-size="13" lengthAdjust="spacing" textLength="156.2793" x="450.9082" y="311.2935">Update Seat Availability</text><polygon fill="#181818" points="454.9082,341.4922,444.9082,345.4922,454.9082,349.4922,450.9082,345.4922" style="stroke:#181818;stroke-width:1;"/><line style="stroke:#181818;stroke-width:1;stroke-dasharray:2.0,2.0;" x1="448.9082" x2="623.1875" y1="345.4922" y2="345.4922"/><text fill="#000000" font-family="sans-serif" font-size="13" lengthAdjust="spacing" textLength="101.3086" x="460.9082" y="340.4263">Seats Reserved</text><polygon fill="#181818" points="281.9541,370.625,271.9541,374.625,281.9541,378.625,277.9541,374.625" style="stroke:#181818;stroke-width:1;"/><line style="stroke:#181818;stroke-width:1;stroke-dasharray:2.0,2.0;" x1="275.9541" x2="442.9082" y1="374.625" y2="374.625"/><text fill="#000000" font-family="sans-serif" font-size="13" lengthAdjust="spacing" textLength="148.9541" x="287.9541" y="369.5591">Confirm Seat Selection</text><polygon fill="#181818" points="258.9541,399.7578,268.9541,403.7578,258.9541,407.7578,262.9541,403.7578" style="stroke:#181818;stroke-width:1;"/><line style="stroke:#181818;stroke-width:1;" x1="40.0776" x2="264.9541" y1="403.7578" y2="403.7578"/><text fill="#000000" font-family="sans-serif" font-size="13" lengthAdjust="spacing" textLength="131.3457" x="47.0776" y="398.6919">Proceed to Payment</text><polygon fill="#181818" points="431.9082,428.8906,441.9082,432.8906,431.9082,436.8906,435.9082,432.8906" style="stroke:#181818;stroke-width:1;"/><line style="stroke:#181818;stroke-width:1;" x1="270.9541" x2="437.9082" y1="432.8906" y2="432.8906"/><text fill="#000000" font-family="sans-serif" font-size="13" lengthAdjust="spacing" textLength="107.085" x="277.9541" y="427.8247">Initiate Payment</text><polygon fill="#181818" points="787.46,458.0234,797.46,462.0234,787.46,466.0234,791.46,462.0234" style="stroke:#181818;stroke-width:1;"/><line style="stroke:#181818;stroke-width:1;" x1="443.9082" x2="793.46" y1="462.0234" y2="462.0234"/><text fill="#000000" font-family="sans-serif" font-size="13" lengthAdjust="spacing" textLength="111.4585" x="450.9082" y="456.9575">Process Payment</text><polygon fill="#181818" points="454.9082,487.1563,444.9082,491.1563,454.9082,495.1563,450.9082,491.1563" style="stroke:#181818;stroke-width:1;"/><line style="stroke:#181818;stroke-width:1;stroke-dasharray:2.0,2.0;" x1="448.9082" x2="798.46" y1="491.1563" y2="491.1563"/><text fill="#000000" font-family="sans-serif" font-size="13" lengthAdjust="spacing" textLength="113.9595" x="460.9082" y="486.0903">Payment Success</text><polygon fill="#181818" points="938.7759,516.2891,948.7759,520.2891,938.7759,524.2891,942.7759,520.2891" style="stroke:#181818;stroke-width:1;"/><line style="stroke:#181818;stroke-width:1;" x1="443.9082" x2="944.7759" y1="520.2891" y2="520.2891"/><text fill="#000000" font-family="sans-serif" font-size="13" lengthAdjust="spacing" textLength="121.2085" x="450.9082" y="515.2231">Send Confirmation</text><polygon fill="#181818" points="51.0776,545.4219,41.0776,549.4219,51.0776,553.4219,47.0776,549.4219" style="stroke:#181818;stroke-width:1;"/><line style="stroke:#181818;stroke-width:1;stroke-dasharray:2.0,2.0;" x1="45.0776" x2="949.7759" y1="549.4219" y2="549.4219"/><text fill="#000000" font-family="sans-serif" font-size="13" lengthAdjust="spacing" textLength="124.3062" x="57.0776" y="544.356">Booking Confirmed</text><!--SRC=[VL9BJiCm4Dtd5AEiwGMoG2gKLYoAAWe769nf6P7QaJqDokqPfqbBqYGRByRl-NqyQCHvI9SYP7EYD2dH2nikqGgilRDntXkcozqhR53e5-i-FDqJ2cpHuf5Ef8Cz-OhDuD5qX_NCxPiJFh11OMTlaEJc41QFLsEP8j2RRpXeYAshc4BItKLSpsi6QnB5DZXOeM3Iksy8BrMqDf8XWmr9noL1Ba8oZOR5lVexoTdR6VbUi1M7ii1QMU5SIFXNm21_GQRrzH1VrVE3Jth6pvXjGrzMjzG2xwkO-iqCFijSWGqHbfLMWLzSiDJ996UiZqQtSv7Fbl7ix87zwQ9uYQphCRaKE-yCKGxYe5sskHvUBGl7F1tslehXohOI8TmuGyXOuYlcR29vH6Xq-sDLwhmj0I_HHv6jQDTA1a_E_R0zTbpA_m00]--></g></svg>