<svg xmlns="http://www.w3.org/2000/svg" xmlns:xlink="http://www.w3.org/1999/xlink" contentStyleType="text/css" height="356px" preserveAspectRatio="none" style="width:688px;height:356px;background:#FFFFFF;" version="1.1" viewBox="0 0 688 356" width="688px" zoomAndPan="magnify"><defs/><g><line style="stroke:#181818;stroke-width:0.5;stroke-dasharray:5.0,5.0;" x1="23" x2="23" y1="81.2969" y2="276.0938"/><line style="stroke:#181818;stroke-width:0.5;stroke-dasharray:5.0,5.0;" x1="216.7495" x2="216.7495" y1="81.2969" y2="276.0938"/><line style="stroke:#181818;stroke-width:0.5;stroke-dasharray:5.0,5.0;" x1="384.1523" x2="384.1523" y1="81.2969" y2="276.0938"/><line style="stroke:#181818;stroke-width:0.5;stroke-dasharray:5.0,5.0;" x1="595.1992" x2="595.1992" y1="81.2969" y2="276.0938"/><text fill="#000000" font-family="sans-serif" font-size="14" lengthAdjust="spacing" textLength="31.9102" x="5" y="77.9951">User</text><ellipse cx="23.9551" cy="13.5" fill="#E2E2F0" rx="8" ry="8" style="stroke:#181818;stroke-width:0.5;"/><path d="M23.9551,21.5 L23.9551,48.5 M10.9551,29.5 L36.9551,29.5 M23.9551,48.5 L10.9551,63.5 M23.9551,48.5 L36.9551,63.5 " fill="none" style="stroke:#181818;stroke-width:0.5;"/><text fill="#000000" font-family="sans-serif" font-size="14" lengthAdjust="spacing" textLength="31.9102" x="5" y="288.0889">User</text><ellipse cx="23.9551" cy="299.8906" fill="#E2E2F0" rx="8" ry="8" style="stroke:#181818;stroke-width:0.5;"/><path d="M23.9551,307.8906 L23.9551,334.8906 M10.9551,315.8906 L36.9551,315.8906 M23.9551,334.8906 L10.9551,349.8906 M23.9551,334.8906 L36.9551,349.8906 " fill="none" style="stroke:#181818;stroke-width:0.5;"/><rect fill="#E2E2F0" height="30.2969" rx="2.5" ry="2.5" style="stroke:#181818;stroke-width:0.5;" width="77.1094" x="178.7495" y="50"/><text fill="#000000" font-family="sans-serif" font-size="14" lengthAdjust="spacing" textLength="63.1094" x="185.7495" y="69.9951">Frontend</text><rect fill="#E2E2F0" height="30.2969" rx="2.5" ry="2.5" style="stroke:#181818;stroke-width:0.5;" width="77.1094" x="178.7495" y="275.0938"/><text fill="#000000" font-family="sans-serif" font-size="14" lengthAdjust="spacing" textLength="63.1094" x="185.7495" y="295.0889">Frontend</text><rect fill="#E2E2F0" height="30.2969" rx="2.5" ry="2.5" style="stroke:#181818;stroke-width:0.5;" width="102.4434" x="333.1523" y="50"/><text fill="#000000" font-family="sans-serif" font-size="14" lengthAdjust="spacing" textLength="88.4434" x="340.1523" y="69.9951">API Gateway</text><rect fill="#E2E2F0" height="30.2969" rx="2.5" ry="2.5" style="stroke:#181818;stroke-width:0.5;" width="102.4434" x="333.1523" y="275.0938"/><text fill="#000000" font-family="sans-serif" font-size="14" lengthAdjust="spacing" textLength="88.4434" x="340.1523" y="295.0889">API Gateway</text><rect fill="#E2E2F0" height="30.2969" rx="2.5" ry="2.5" style="stroke:#181818;stroke-width:0.5;" width="172.9629" x="509.1992" y="50"/><text fill="#000000" font-family="sans-serif" font-size="14" lengthAdjust="spacing" textLength="158.9629" x="516.1992" y="69.9951">Authentication Service</text><rect fill="#E2E2F0" height="30.2969" rx="2.5" ry="2.5" style="stroke:#181818;stroke-width:0.5;" width="172.9629" x="509.1992" y="275.0938"/><text fill="#000000" font-family="sans-serif" font-size="14" lengthAdjust="spacing" textLength="158.9629" x="516.1992" y="295.0889">Authentication Service</text><polygon fill="#181818" points="205.3042,108.4297,215.3042,112.4297,205.3042,116.4297,209.3042,112.4297" style="stroke:#181818;stroke-width:1;"/><line style="stroke:#181818;stroke-width:1;" x1="23.9551" x2="211.3042" y1="112.4297" y2="112.4297"/><text fill="#000000" font-family="sans-serif" font-size="13" lengthAdjust="spacing" textLength="169.3491" x="30.9551" y="107.3638">Enter Email and Password</text><polygon fill="#181818" points="372.374,137.5625,382.374,141.5625,372.374,145.5625,376.374,141.5625" style="stroke:#181818;stroke-width:1;"/><line style="stroke:#181818;stroke-width:1;" x1="217.3042" x2="378.374" y1="141.5625" y2="141.5625"/><text fill="#000000" font-family="sans-serif" font-size="13" lengthAdjust="spacing" textLength="143.0698" x="224.3042" y="136.4966">Submit Login Request</text><polygon fill="#181818" points="583.6807,166.6953,593.6807,170.6953,583.6807,174.6953,587.6807,170.6953" style="stroke:#181818;stroke-width:1;"/><line style="stroke:#181818;stroke-width:1;" x1="384.374" x2="589.6807" y1="170.6953" y2="170.6953"/><text fill="#000000" font-family="sans-serif" font-size="13" lengthAdjust="spacing" textLength="131.498" x="391.374" y="165.6294">Validate Credentials</text><polygon fill="#181818" points="395.374,195.8281,385.374,199.8281,395.374,203.8281,391.374,199.8281" style="stroke:#181818;stroke-width:1;"/><line style="stroke:#181818;stroke-width:1;stroke-dasharray:2.0,2.0;" x1="389.374" x2="594.6807" y1="199.8281" y2="199.8281"/><text fill="#000000" font-family="sans-serif" font-size="13" lengthAdjust="spacing" textLength="187.3066" x="401.374" y="194.7622">Return Authentication Token</text><polygon fill="#181818" points="228.3042,224.9609,218.3042,228.9609,228.3042,232.9609,224.3042,228.9609" style="stroke:#181818;stroke-width:1;"/><line style="stroke:#181818;stroke-width:1;stroke-dasharray:2.0,2.0;" x1="222.3042" x2="383.374" y1="228.9609" y2="228.9609"/><text fill="#000000" font-family="sans-serif" font-size="13" lengthAdjust="spacing" textLength="91.7617" x="234.3042" y="223.895">Login Success</text><polygon fill="#181818" points="34.9551,254.0938,24.9551,258.0938,34.9551,262.0938,30.9551,258.0938" style="stroke:#181818;stroke-width:1;"/><line style="stroke:#181818;stroke-width:1;stroke-dasharray:2.0,2.0;" x1="28.9551" x2="216.3042" y1="258.0938" y2="258.0938"/><text fill="#000000" font-family="sans-serif" font-size="13" lengthAdjust="spacing" textLength="146.5547" x="40.9551" y="253.0278">Redirect to Dashboard</text><!--SRC=[TP31IWD138RlynG_U-yBx44GhI9uA5trdiu46zncsap6ujkxGr7SLKyXoPS_VqBHi-6vi8KZcKkK8wdZph8wQveLk-lD0-x9-KmVtQ9JVSywvUII5GFRkqJkGcZAM5rz2_POJz6mFf2C84tOK2ddR2by8GsVhUenrDr178_vLHHRFbKk7cRCPUXl5prUQ9GqaRWnJesWiOJ_SAn-6zYoLrCi9fxo6-lIn-pOY-EXniYb_BXmWjfdcd0Iu-ZmZ5ig-rqcIvy0]--></g></svg>